# xmcd
# 
# Track frame offsets:
#     150
#     17344
#     33602
#     48467
#     65729
# 
# Disc length: 1092
# 
# Revision: 0
# Processed by: cddbd v1.5.2PL0 Copyright (c) Steve Scherf et al.
# Submitted via: BonkEnc v1.0.8
# 
DISCID=3d044205
DTITLE=安室奈美恵 - CAN'T SLEEP, CAN'T EAT, I'M SICK
DYEAR=2007
DGENRE=JPop
TTITLE0=CAN'T SLEEP, CAN'T EAT, I’M SICK
TTITLE1=人魚
TTITLE2=CAN'T SLEEP, CAN'T EAT, I’M SICK (REMIX)
TTITLE3=CAN'T SLEEP, CAN'T EAT, I’M SICK
TTITLE4=人魚
EXTD=
EXTT0=
EXTT1=
EXTT2=
EXTT3=
EXTT4=
PLAYORDER=
